<?xml version="1.0" encoding="utf-8"?>
<!-- Generator: Adobe Illustrator 18.0.0, SVG Export Plug-In . SVG Version: 6.00 Build 0)  -->
<!DOCTYPE svg PUBLIC "-//W3C//DTD SVG 1.1//EN" "http://www.w3.org/Graphics/SVG/1.1/DTD/svg11.dtd">
<svg version="1.1" id="Layer_1" xmlns="http://www.w3.org/2000/svg" xmlns:xlink="http://www.w3.org/1999/xlink" x="0px" y="0px"
	 viewBox="-1.8 -1.8 1083.5 1083.5" enable-background="new -1.8 -1.8 1083.5 1083.5" xml:space="preserve">
<g id="Circle_flat">
	<circle fill="none" stroke="#010202" stroke-width="30" stroke-miterlimit="10" cx="540" cy="540" r="526.8"/>
	<g>
		<path fill="#010202" d="M438.8,358.9c17.3,0,33,1.5,47.2,4.6c14.2,3,26.4,8,36.5,15c10.1,6.9,18,16.2,23.6,27.7
			c5.6,11.5,8.4,25.7,8.4,42.6c0,18.3-4.1,33.5-12.4,45.7c-8.3,12.2-20.6,22.2-36.8,29.9c22.3,6.4,39,17.7,50,33.7
			c11,16.1,16.5,35.4,16.5,58.1c0,18.3-3.6,34.1-10.7,47.4c-7.1,13.4-16.7,24.3-28.7,32.7c-12,8.5-25.7,14.7-41.1,18.8
			c-15.4,4.1-31.2,6.1-47.4,6.1H268.3V358.9H438.8z M428.6,505.5c14.2,0,25.9-3.4,35-10.1c9.1-6.8,13.7-17.8,13.7-33
			c0-8.5-1.5-15.4-4.6-20.8c-3-5.4-7.1-9.6-12.2-12.7c-5.1-3-10.9-5.2-17.5-6.3c-6.6-1.2-13.4-1.8-20.6-1.8H348v84.7L428.6,505.5
			L428.6,505.5z M433.2,659.2c7.8,0,15.2-0.8,22.3-2.3c7.1-1.5,13.4-4.1,18.8-7.6c5.4-3.5,9.7-8.4,12.9-14.5
			c3.2-6.1,4.8-13.9,4.8-23.3c0-18.6-5.2-31.9-15.7-39.8c-10.5-7.9-24.4-11.9-41.6-11.9H348v99.4L433.2,659.2L433.2,659.2z"/>
		<path fill="#010202" d="M672,651.6c10.8,10.5,26.4,15.7,46.7,15.7c14.5,0,27.1-3.6,37.5-10.9c10.5-7.3,16.9-15,19.3-23.1h63.4
			c-10.1,31.5-25.7,54-46.7,67.5c-21,13.5-46.3,20.3-76.1,20.3c-20.6,0-39.2-3.3-55.8-9.9c-16.6-6.6-30.6-16-42.1-28.2
			c-11.5-12.2-20.4-26.7-26.6-43.6c-6.3-16.9-9.4-35.5-9.4-55.8c0-19.6,3.2-37.9,9.6-54.8c6.4-16.9,15.6-31.5,27.4-43.9
			c11.8-12.3,26-22.1,42.4-29.2c16.4-7.1,34.6-10.7,54.5-10.7c22.3,0,41.8,4.3,58.4,12.9c16.6,8.6,30.2,20.2,40.8,34.8
			c10.7,14.5,18.3,31.1,23.1,49.7c4.7,18.6,6.4,38.1,5.1,58.3H654.2C655.2,624.2,661.1,641.1,672,651.6z M753.4,513.6
			c-8.6-9.5-21.7-14.2-39.3-14.2c-11.5,0-21.1,2-28.7,5.8c-7.6,3.9-13.7,8.7-18.3,14.5c-4.6,5.8-7.8,11.8-9.6,18.3
			c-1.9,6.4-3,12.2-3.3,17.3h117.2C768,537,762,523.1,753.4,513.6z"/>
		<rect x="641.9" y="377.3" fill="#010202" width="146.4" height="40.6"/>
	</g>
</g>
<g id="Layer_1_1_">
</g>
</svg>
