<?xml version="1.0" encoding="utf-8"?>
<!-- Generator: Adobe Illustrator 18.0.0, SVG Export Plug-In . SVG Version: 6.00 Build 0)  -->
<!DOCTYPE svg PUBLIC "-//W3C//DTD SVG 1.1//EN" "http://www.w3.org/Graphics/SVG/1.1/DTD/svg11.dtd">
<svg version="1.1" id="Layer_1" xmlns="http://www.w3.org/2000/svg" xmlns:xlink="http://www.w3.org/1999/xlink" x="0px" y="0px"
	 viewBox="-1.8 -1.8 1083.5 1083.5" enable-background="new -1.8 -1.8 1083.5 1083.5" xml:space="preserve">
<g id="Circle_flat">
	<g>
		<g>
			<defs>
				<circle id="SVGID_1_" cx="540" cy="540" r="526.8"/>
			</defs>
			<clipPath id="SVGID_2_">
				<use xlink:href="#SVGID_1_"  overflow="visible"/>
			</clipPath>
			<g id="Github_1_" clip-path="url(#SVGID_2_)">
				<path fill="#010202" d="M563.5,1077.8l-81.9-6.6l-47.2-7.7c5.5-5.1,8.3-11.5,8.3-19.1c0-1.3-0.1-12.7-0.3-34.4
					c-0.2-21.7-0.3-40.6-0.3-56.7l-14.7,2.5c-9.3,1.7-21.1,2.4-35.4,2.2c-14.2-0.2-29-1.7-44.3-4.5c-15.3-2.7-29.5-9.1-42.7-19.1
					c-13.2-10-22.5-23.1-28-39.2l-6.4-14.7c-4.2-9.8-10.9-20.6-20.1-32.5c-9.1-11.9-18.4-20-27.7-24.2l-4.5-3.2
					c-3-2.1-5.7-4.7-8.3-7.7c-2.5-3-4.5-5.9-5.7-8.9s-0.2-5.4,3.2-7.3c3.4-1.9,9.6-2.9,18.5-2.9l12.7,1.9c8.5,1.7,19,6.8,31.6,15.3
					c12.5,8.5,22.8,19.5,30.9,33.1c9.8,17.4,21.6,30.7,35.4,39.8c13.8,9.1,27.7,13.7,41.7,13.7s26.1-1.1,36.3-3.2
					c10.2-2.1,19.8-5.3,28.7-9.6c3.8-28.5,14.2-50.4,31.2-65.7c-24.2-2.5-46-6.4-65.3-11.5c-19.3-5.1-39.3-13.4-59.9-24.9
					c-20.6-11.5-37.7-25.7-51.3-42.7c-13.6-17-24.8-39.3-33.5-66.9c-8.7-27.6-13.1-59.5-13.1-95.6c0-51.4,16.8-95.2,50.4-131.3
					c-15.7-38.7-14.2-82,4.5-130c12.3-3.8,30.6-1,54.8,8.6c24.2,9.6,42,17.8,53.2,24.5c11.3,6.8,20.3,12.5,27.1,17.2
					c39.5-11,80.3-16.6,122.4-16.6c42.1,0,82.9,5.5,122.4,16.6l24.2-15.3c16.6-10.2,36.1-19.6,58.6-28.1c22.5-8.5,39.7-10.8,51.6-7
					c19.1,48,20.8,91.4,5.1,130c33.6,36.1,50.4,79.9,50.4,131.3c0,36.1-4.4,68.1-13.1,95.9c-8.7,27.8-20,50.1-33.8,66.9
					c-13.8,16.8-31,30.9-51.6,42.4c-20.6,11.5-40.6,19.8-59.9,24.9c-19.3,5.1-41.1,8.9-65.3,11.5c22.1,19.1,33.1,49.3,33.1,90.5
					v134.5c0,7.6,2.7,14,8,19.1"/>
			</g>
		</g>
		<g>
			<circle id="XMLID_23_" fill="none" stroke="#010202" stroke-width="30" stroke-miterlimit="10" cx="540" cy="540" r="526.8"/>
		</g>
	</g>
</g>
</svg>
